<?xml version="1.0" encoding="utf-8"?>
<svg viewBox="0 0 96 96" style="enable-background:new 0 0 96 96;" xmlns="http://www.w3.org/2000/svg">
  <defs>
    <style type="text/css">
	.st0{fill:#93278F;}
	.st1{fill:none;stroke:#93278F;stroke-width:3;stroke-linecap:round;stroke-linejoin:round;stroke-miterlimit:10;}
</style>
  </defs>
  <path class="st0" d="M 72.477 93.063 L 41.069 30.869 C 41.069 30.869 39.991 29.84 37.932 32.785 C 37.932 32.785 29.622 38.964 22.773 29.756 C 22.773 29.756 17.109 20.236 27.862 14.62 C 27.862 14.62 37.513 10.561 42.662 22.703 C 47.823 34.845 75.028 87.064 75.028 87.064 C 75.028 87.064 74.992 91.279 72.477 93.063 Z M 33.98 18.261 C 30.712 16.872 26.94 18.392 25.551 21.661 C 24.162 24.93 25.682 28.702 28.951 30.091 C 32.22 31.48 35.992 29.959 37.381 26.69 C 38.77 23.421 37.237 19.65 33.98 18.261 Z" style="fill: rgb(120, 0, 120);" transform="matrix(-1, 0, 0, -1, 96.310289, 107.03132)"/>
  <polygon class="st0" points="27.629 12.256 52.607 61.469 50.272 62.176 25.617 13.358" style="fill: rgb(120, 0, 120);" transform="matrix(-1, 0, 0, -1, 78.224, 74.432)"/>
  <polygon class="st0" points="44.668 5.287 60.797 57.722 58.451 58.668 42.453 5.898" style="fill: rgb(120, 0, 120);" transform="matrix(-1, 0, 0, -1, 103.250002, 63.955003)"/>
  <path class="st0" d="M 52.88 8.152 C 52.88 8.152 47.372 6.379 46.617 4.919 C 45.863 3.458 66.327 69.591 66.327 69.591 C 66.327 69.591 68.781 74.536 72.924 73.374 L 52.88 8.152 Z" style="fill: rgb(120, 0, 120);" transform="matrix(-1, 0, 0, -1, 119.52067, 78.445985)"/>
</svg>