<?xml version="1.0" encoding="utf-8"?>
<!-- Generator: Adobe Illustrator 26.1.0, SVG Export Plug-In . SVG Version: 6.00 Build 0)  -->
<svg version="1.1" id="Layer_1" xmlns="http://www.w3.org/2000/svg" xmlns:xlink="http://www.w3.org/1999/xlink" x="0px" y="0px"
	 viewBox="0 0 96 96" style="enable-background:new 0 0 96 96;" xml:space="preserve">
<style type="text/css">
	.st0{fill:#93278F;}
	.st1{fill:none;stroke:#93278F;stroke-width:3;stroke-linecap:round;stroke-linejoin:round;stroke-miterlimit:10;}
</style>
<path class="st0" d="M87.15,22.6L60.92,74.54c0,0-0.9,0.86-2.62-1.6c0,0-6.94-5.16-12.66,2.53c0,0-4.73,7.95,4.25,12.64
	c0,0,8.06,3.39,12.36-6.75c4.31-10.14,27.03-53.75,27.03-53.75S89.25,24.09,87.15,22.6z M55,85.07c-2.73,1.16-5.88-0.11-7.04-2.84
	s0.11-5.88,2.84-7.04c2.73-1.16,5.88,0.11,7.04,2.84S57.72,83.91,55,85.07z"/>
<polygon class="st0" points="64.8,62.86 85.66,21.76 83.71,21.17 63.12,61.94 "/>
<polygon class="st0" points="58.13,59.93 71.6,16.14 69.64,15.35 56.28,59.42 "/>
<path class="st0" d="M51.4,69.64c0,0-4.6,1.48-5.23,2.7s16.46-54.01,16.46-54.01s2.05-4.13,5.51-3.16L51.4,69.64z"/>
<path class="st1" d="M17.21,71.83h18.4c0,0,11.2-19.73-0.67-45.7H17.21C17.21,26.13,5.98,48.86,17.21,71.83z"/>
<rect x="20.46" y="36.25" class="st1" width="11.86" height="25.1"/>
<path class="st1" d="M18.71,21.89v-6.49c0,0,1.62-4.87,7.68-4.87s8.18,2.62,8.18,5.68H18.71"/>
<line class="st1" x1="34.57" y1="16.2" x2="34.57" y2="21.89"/>
</svg>
