<?xml version="1.0" encoding="utf-8"?>
<svg viewBox="0 0 96 96" style="enable-background:new 0 0 96 96;" xmlns="http://www.w3.org/2000/svg">
  <defs>
    <style type="text/css">
	.st0{fill:#93278F;stroke:#000000;stroke-width:2;stroke-miterlimit:10;}
	.st1{fill:#D9E021;}
	.st2{fill:#FBB03B;}
	.st3{fill:#C1272D;}
	.st4{fill:#662D91;}
	.st5{fill:#2E3192;}
</style>
  </defs>
  <path class="st0" d="M83.51,35.64C71.67,8.57,40.32,13.48,40.32,13.48C9.72,20.66,8.84,49.74,8.84,49.74 C8.59,78.83,31.76,85.88,31.76,85.88c15.11,4.28,15.89-12.72,15.89-12.72c4.51-16.9,26.39-8.84,26.39-8.84 C96.3,65.43,83.51,35.64,83.51,35.64z M50.08,57.49c-4.22,0-7.63-3.42-7.63-7.63c0-4.22,3.42-7.63,7.63-7.63 c4.22,0,7.63,3.42,7.63,7.63C57.71,54.07,54.3,57.49,50.08,57.49z" style="stroke: rgb(93, 0, 106); fill: rgba(170, 92, 170, 0);"/>
  <circle class="st1" cx="33.15" cy="27.51" r="6.93"/>
  <circle class="st2" cx="19.28" cy="49.86" r="6.93"/>
  <circle class="st3" cx="33.15" cy="71.23" r="6.93"/>
  <circle class="st4" cx="76.72" cy="51.36" r="6.93"/>
  <circle class="st5" cx="59.52" cy="24.77" r="6.93"/>
</svg>