<?xml version="1.0" encoding="utf-8"?>
<!-- Generator: Adobe Illustrator 26.1.0, SVG Export Plug-In . SVG Version: 6.00 Build 0)  -->
<svg version="1.1" id="Layer_1" xmlns="http://www.w3.org/2000/svg" xmlns:xlink="http://www.w3.org/1999/xlink" x="0px" y="0px"
	 viewBox="0 0 96 96" style="enable-background:new 0 0 96 96;" xml:space="preserve">
<style type="text/css">
	.st0{fill:#93278F;}
	.st1{fill:#FFFFFF;stroke:#000000;stroke-width:0.25;stroke-miterlimit:10;}
	.st2{fill:none;stroke:#000000;stroke-width:0.25;stroke-miterlimit:10;}
</style>
<path class="st0" d="M27.65,54.63"/>
<path class="st0" d="M48.01,42.9l-6.71,3.85c-11.32,7.02-18.82,5.4-18.82,5.4c-4.95-2.37-8.09-2-8.09-2
	c-10.39,0-11.01,9.87-11.01,9.87c0,6.78,6.74,9.19,6.74,9.19c8.5,1.62,13.69-3.61,14.04-8.98c0.34-5.37,4.06-5.37,4.06-5.37
	s6.57-1.69,9.36-2.31c2.79-0.62,5.37,0.34,5.37,0.34l-0.72-1.96L48.01,42.9z M13.59,67.66c-4.33,0-7.84-3.51-7.84-7.84
	s3.51-7.84,7.84-7.84s7.84,3.51,7.84,7.84S17.93,67.66,13.59,67.66z"/>
<path class="st0" d="M46.85,61.84L81.21,2.06c0,0-1.33-2.09-4.4,1.95L42.93,51.1c0,0,2.64,4.31,1.03,10.37
	c-3.07,11.6-6.79,11.1-6.79,11.1c-9.95,1.24-10.05,10.92-10.05,10.92c0.18,5.18,3.95,7.8,3.95,7.8c4.45,4.27,10.18,0.83,10.18,0.83
	s5.6-2.61,5.6-10.6c0,0-1.06-4.95-1.65-5.64c-0.6-0.69-0.92-3.72-0.64-4.63C44.56,71.24,44.97,64.13,46.85,61.84z M44.56,83.26
	c0,4.61-3.45,8.35-7.71,8.35c-4.26,0-7.71-3.74-7.71-8.35c0-4.61,3.45-8.35,7.71-8.35C41.11,74.91,44.56,78.65,44.56,83.26z"/>
<circle class="st1" cx="51.83" cy="44.98" r="1.81"/>
<line class="st2" x1="50.59" y1="43.65" x2="53.15" y2="46.21"/>
<path class="st0" d="M56.3,46.62l7.5-12.97l30.83-17.82c0,0,1.45,0.69,0,2.68C93.19,20.5,56.3,46.62,56.3,46.62z"/>
</svg>
